<svg xmlns="http://www.w3.org/2000/svg" width="196" height="288" viewBox="0 0 196 288"><path fill="#FFF" stroke="#27AAE1" stroke-miterlimit="10" d="M62.63 202.226c-4.462-2.546-7.287-6.32-7.287-10.531v-66.257c0-7.667 9.362-13.883 20.917-13.883h66.993c11.554 0 20.914 6.215 20.914 13.883v66.257c0 4.044-2.606 7.685-6.763 10.221"/><ellipse fill="#FFF" stroke="#27AAE1" stroke-miterlimit="10" cx="110.293" cy="70.822" rx="66.381" ry="62.127"/><g stroke="#27AAE1" stroke-miterlimit="10"><path fill="#FFF" d="M155.059 156.548c3.974 17.793 3.62 37.765 1.37 53.951M62.954 205.578c3.79 35.394 17.487 63.416 17.487 63.416s-15.119 5.428-12.773 8.856c2.345 3.427 4.03 5.143 4.03 5.143l30.23-8.857-1.041-7.287s-3.617-13.701 0-25.792M67.667 148.046c-6.026 19.299-6.61 39.361-4.713 57.532M156.429 210.499c-47.321 21.073-92.657-.74-92.657-.74"/><path fill="#FFF" d="M157.689 177.906s-12.974 4.318-17.915 0c-4.938-4.319-6.9-28.417-6.9-28.417h-31.847 20.764H88.18s-2.068 24.098-7.282 28.417c-5.214 4.318-18.906 0-18.906 0"/><circle fill="#FFF" cx="119.966" cy="183.524" r="4.25"/><circle opacity=".41" fill="#27AAE1" cx="119.966" cy="164.656" r="4.25"/><path fill="#FFF" d="M98.809 160.317h7.272v27.457h-7.272z"/><path fill="none" d="M157.247 206.843c-47.961 21.074-93.911-.74-93.911-.74M72.244 248.567c4.586 5.731 26.938 5.036 27.203 0M73.875 252.61c4.294 5.731 25.23 5.036 25.475 0M123.014 248.567c4.098 5.731 24.075 5.036 24.311 0M123.058 252.61c3.849 5.731 22.6 5.036 22.82 0"/><circle fill="none" cx="119.966" cy="164.656" r="4.25"/><circle opacity=".4" fill="#27AAE1" cx="119.966" cy="183.524" r="4.25"/></g><g stroke="#27AAE1" stroke-miterlimit="10"><path fill="none" d="M121.81 241.517c3.118 12.093.091 25.754.091 25.754l-1.65 8.071 28.463 8.073s3.103-2.571 4.245-6.57c1.148-3.998-13.315-8.635-13.315-8.635s3.587-7.339 7.598-19.249c3.401-10.097 7.105-23.479 9.188-38.462"/><path fill="#FFF" d="M121.945 241.801s-11.044-24.365-21.363 0"/></g><path opacity=".02" fill="#00AEEF" d="M54.164 77.34c7.958 63.047 110.957 55.646 115.119 0l-.035.143C172.175.491 50.525-.348 54.164 77.686"/><path fill="none" stroke="#27AAE1" stroke-miterlimit="10" d="M53.306 77.642c7.958 63.045 110.958 55.644 115.12 0l-.036.145C171.316.795 49.668-.045 53.306 77.99"/><path fill="#FFF" stroke="#27AAE1" stroke-miterlimit="10" d="M43.912 76.112c0 1.075-1.071 1.947-2.392 1.947s-2.392-.872-2.392-1.947V61.234c0-1.075 1.07-1.946 2.392-1.946 1.321 0 2.392.872 2.392 1.946v14.878zM181.456 76.112c0 1.075-1.069 1.947-2.389 1.947-1.322 0-2.393-.872-2.393-1.947V61.234c0-1.075 1.07-1.946 2.393-1.946 1.319 0 2.389.872 2.389 1.946v14.878zM185.674 72.176a2.11 2.11 0 0 1-4.217 0v-5.689a2.11 2.11 0 0 1 2.109-2.108c1.166 0 2.108.944 2.108 2.108v5.689z"/><path fill="#FFF" stroke="#27AAE1" stroke-miterlimit="10" d="M39.129 71.518a2.108 2.108 0 0 1-2.109 2.107 2.107 2.107 0 0 1-2.108-2.107v-5.689a2.108 2.108 0 1 1 4.217 0v5.689zM41.506 59.308s-2.893-33.266 3.833-49.28"/><circle fill="none" stroke="#27AAE1" stroke-miterlimit="10" cx="46.192" cy="8.396" r="2.764"/><circle opacity=".17" fill="#27AAE1" cx="46.192" cy="8.396" r="2.764"/><path opacity=".17" fill="#00AEEF" d="M103.479 19.753C76.794 22.857 52.51 42.033 54.165 77.54M70.77 108.191c31.215 26.757 95.666 12.838 98.942-30.941l-.037.143c1.298-34.106-21.854-53.27-47.729-57.251"/><g stroke="#27AAE1" stroke-miterlimit="10"><path fill="none" d="M169.995 200.216s-.776 1.12.25 6.68c0 0 6.643 13.012 5.56.471"/><path fill="none" d="M185.647 204.569c3.992 5.767 3.951 14.174 2.259 15.767-4.526 4.247-3.98-.098-12.976-14.377"/><path fill="#FFF" d="M73.723 121.562c-14.496 14.494-26.737 22.5-33.48 30.297l-16.189-26.995-12.058 13.677s22.889 38.938 28.718 35.808c8.325-4.474 31.315-27.552 31.315-27.552s-5.223-18.462-1.7-21.919M15.5 143.772l11.531-14.106"/><path fill="none" d="M12.815 137.613c-1.261-1.513-8.688-11.574-8.248-16.988.485-5.971 1.187-7.317 4.597-7.52 3.411-.206 8.94 4.365 8.94 4.365s.275-3.948.187-4.694c-.086-.745.449-2.131 1.726-2.29 1.278-.157 2.576 2.614 3.034 4.255.458 1.642 1.003 10.123 1.003 10.123"/><path fill="#FFF" d="M149.979 119.825c35.286 25.374 35.754 85.136 35.754 85.136l-15.515-3.129-24.891-59.726c2.639-3.423 10.793-13.287 7.775-19.874M147.445 147.178s11.828-12.671 9.954-20.771M66.057 151.371s-5.127-18.714-2.235-20.125"/><path fill="none" d="M169.069 198.61l16.023 1.606"/></g></svg>