<svg xmlns="http://www.w3.org/2000/svg" width="288" height="288" viewBox="0 0 288 288"><g fill="#FFF"><path d="M169.879 179.827l-44.141.652-.785-6.304 45.26-.333z"/><path d="M168.551 186.645l-12.219 4.739-2.878 1.714-2.494-3.836-3.146-1.242-3.109 1.875-1.327 2.981-2.655-.58-13.145-5.651v-7.368h40.973zM110.422 175.553l-.705 1.155-.681 2.199v1.911l.1 1.761 1.032.989 1.257-.359 1.074-1.753 1.196-2.179 1.234-2.117.239 1.272.456.586 1.017-.859 1.078-1.37.415-2.426-.24-.317-7.472 1.507M184.191 175.42l.705 1.21.682 2.304v2l-.099 1.843-1.034 1.036-1.256-.375-1.074-1.836-1.195-2.282-1.234-2.216-.241 1.33-.455.613-1.017-.899-1.077-1.433-.416-2.541.241-.332 7.47 1.578"/></g><path fill="#FFF" stroke="#6D6E71" stroke-miterlimit="10" d="M124.953 174.175c-2.149-1.227-3.509-3.044-3.509-5.071v-31.911c0-3.692 4.509-6.686 10.073-6.686h32.265c5.563 0 10.071 2.994 10.071 6.686v31.911c0 1.947-1.254 3.701-3.256 4.922"/><ellipse fill="#FFF" stroke="#6D6E71" stroke-width=".75" stroke-miterlimit="10" cx="147.583" cy="110.385" rx="31.97" ry="29.921"/><path fill="#FFF" stroke="#6D6E71" stroke-width=".75" stroke-miterlimit="10" d="M169.468 152.176c1.913 8.569 1.743 18.188.659 25.983M125.109 175.789c1.825 17.046 8.422 30.542 8.422 30.542s-7.281 2.614-6.152 4.267c1.129 1.649 1.941 2.477 1.941 2.477l14.559-4.266-.501-3.511s-1.742-6.599 0-12.422M127.379 148.081c-2.902 9.295-3.184 18.957-2.27 27.708M170.127 178.159c-22.79 10.149-44.624-.356-44.624-.356"/><path fill="#FFF" stroke="#6D6E71" stroke-width=".75" stroke-miterlimit="10" d="M170.734 162.462s-6.248 2.08-8.629 0c-2.379-2.08-3.322-13.687-3.322-13.687h-15.338 10-16.188s-.996 11.605-3.507 13.687c-2.511 2.08-9.105 0-9.105 0"/><circle fill="#009444" cx="152.566" cy="165.168" r="2.047"/><circle fill="#BE1E2D" cx="152.566" cy="156.081" r="2.047"/><path fill="#F1F2F2" stroke="#A7A9AC" stroke-width=".5" stroke-miterlimit="10" d="M142.377 153.991h3.502v13.224h-3.502z"/><path fill="none" stroke="#6D6E71" stroke-width=".75" stroke-miterlimit="10" d="M170.521 176.398c-23.1 10.148-45.229-.356-45.229-.356M129.583 196.493c2.209 2.761 12.974 2.426 13.101 0M130.369 198.439c2.068 2.762 12.151 2.427 12.269 0"/><path fill="#FFF" stroke="#6D6E71" stroke-width=".75" stroke-miterlimit="10" d="M153.479 193.097c1.502 5.824.044 12.403.044 12.403l-.795 3.888 13.708 3.889s1.493-1.238 2.045-3.164c.553-1.926-6.413-4.159-6.413-4.159s1.729-3.534 3.659-9.271c1.638-4.863 3.422-11.309 4.425-18.523"/><path fill="none" stroke="#6D6E71" stroke-width=".75" stroke-miterlimit="10" d="M153.52 193.234s-5.317-11.734-10.289 0"/><path opacity=".17" fill="#A7A9AC" d="M118.84 113.784c4.057 32.143 56.571 28.37 58.694 0l-.019.073c1.492-39.253-60.53-39.68-58.675.104"/><path fill="#FFF" stroke="#6D6E71" stroke-width=".75" stroke-miterlimit="10" d="M115.938 113.438c0 .518-.516.938-1.152.938-.636 0-1.152-.42-1.152-.938v-7.166c0-.518.516-.938 1.152-.938.636 0 1.152.42 1.152.938v7.166zM182.182 113.438c0 .518-.516.938-1.15.938-.637 0-1.152-.42-1.152-.938v-7.166c0-.518.516-.938 1.152-.938.636 0 1.15.42 1.15.938v7.166z"/><path fill="#FFF" stroke="#6D6E71" stroke-width=".75" stroke-miterlimit="10" d="M184.212 111.542a1.016 1.016 0 1 1-2.033 0v-2.74a1.016 1.016 0 1 1 2.033 0v2.74zM113.634 111.225a1.015 1.015 0 1 1-2.031 0v-2.74a1.016 1.016 0 0 1 2.031 0v2.74z"/><path fill="none" stroke="#6D6E71" stroke-width=".75" stroke-miterlimit="10" d="M114.779 105.344s-1.393-16.021 1.846-23.734"/><circle fill="none" stroke="#27AAE1" stroke-miterlimit="10" cx="117.036" cy="80.824" r="1.331"/><circle fill="#F7941E" stroke="#F7941E" stroke-miterlimit="10" cx="117.036" cy="80.824" r="1.331"/><path fill="none" stroke="#6D6E71" stroke-width=".75" stroke-miterlimit="10" d="M176.661 173.207s-.374.539.12 3.217c0 0 3.199 6.268 2.678.227"/><path fill="none" stroke="#6D6E71" stroke-width=".75" stroke-miterlimit="10" d="M184.199 175.305c1.923 2.776 1.902 6.825 1.088 7.592-2.18 2.047-1.917-.047-6.249-6.924"/><path fill="#FFF" stroke="#6D6E71" stroke-width=".75" stroke-miterlimit="10" d="M167.021 134.49c16.994 12.22 17.22 41.002 17.22 41.002l-7.472-1.508-11.988-28.764c1.271-1.648 5.197-6.4 3.744-9.572M165.801 147.663s5.696-6.103 4.795-10.004"/><path fill="none" stroke="#6D6E71" stroke-width=".75" stroke-miterlimit="10" d="M176.215 172.434l7.717.773M118.001 173.268s.374.539-.12 3.217c0 0-3.199 6.268-2.678.228"/><path fill="none" stroke="#6D6E71" stroke-width=".75" stroke-miterlimit="10" d="M110.463 175.364c-1.923 2.776-1.903 6.825-1.088 7.593 2.18 2.046 1.917-.047 6.249-6.924"/><path fill="#FFF" stroke="#6D6E71" stroke-width=".75" stroke-miterlimit="10" d="M128.182 134.387c-16.994 12.22-17.22 41.002-17.22 41.002l7.472-1.507 11.988-28.766c-1.271-1.647-5.198-6.398-3.745-9.57M129.044 147.871s-5.696-6.104-4.794-10.005"/><path fill="none" stroke="#6D6E71" stroke-width=".75" stroke-miterlimit="10" d="M118.447 172.494l-7.717.774"/><path opacity=".41" fill="#A7A9AC" d="M143.754 84.424c-13.41 1.758-25.486 11.517-24.653 29.401M124.479 127.456c14.945 16.199 50.728 9.497 52.473-13.82l-.018.073c.64-16.86-10.438-26.558-23.137-28.982"/><path fill="none" stroke="#6D6E71" stroke-width=".75" stroke-miterlimit="10" d="M118.405 113.939c4.057 32.141 56.569 28.37 58.693 0l-.02.072c1.492-39.252-60.529-39.681-58.673.104M154.034 196.493c1.974 2.761 11.595 2.426 11.708 0M154.057 198.439c1.854 2.762 10.883 2.427 10.989 0"/></svg>