<svg xmlns="http://www.w3.org/2000/svg" width="288" height="288" viewBox="0 0 288 288"><circle fill="#846299" cx="150.65" cy="163.33" r="111.127"/><path opacity=".25" fill="#5B426B" stroke="#5B426B" stroke-miterlimit="10" d="M66.773 125.837c-5.38 17.821-9.078 65.567 27.909 53.798 36.987-11.768 21.182-35.64 20.174-35.64-1.008 0-19.838 4.372-20.174-5.38-.336-9.75-2.017-14.794-13.45-14.794s-14.459 2.016-14.459 2.016z"/><path opacity=".35" fill="#5B426B" stroke="#5B426B" stroke-miterlimit="10" d="M192.863 208.553c-21.529 10.767 6.052 22.865 19.166 21.184 13.113-1.682 6.052-34.297 9.078-27.237 3.025 7.063-9.078-10.759-18.829-10.759s-6.725 15.466-9.415 16.812z"/><path opacity=".72" fill="#5B426B" d="M189.501 242.177c5.379 1.681 3.362 7.397 1.682 10.087-1.682 2.689-7.398 2.354-8.071 0s6.389-10.087 6.389-10.087z"/><path opacity=".61" fill="#5B426B" d="M233.729 183.985c3.611 1.765 3.611 3.527 3.611 11.991s-8.578-1.411-5.268 1.763c3.313 3.173.15-2.475.753-5.999.603-3.521.904-7.755.904-7.755z"/><path opacity=".39" fill="#5B426B" d="M187.38 122.89c-19.011-15.737 30.453-40.667 39.309-27.277 8.856 13.391 24.809 44.902 14.104 55.471s-16.058 23.578-28.264 17.627c-12.205-5.953-18.468-40.293-25.149-45.821z"/><ellipse transform="rotate(-68.967 100.128 213.258)" opacity=".53" fill="#5B426B" cx="100.127" cy="213.263" rx="2.686" ry="5.97"/><g><g fill="#FFF"><path d="M135.68 56.789l-12.404 3.377-.678-1.722 12.745-3.368z"/><path d="M135.799 58.808l-3.104 2.22-.687.692-.982-.901-.977-.123-.741.753-.16.938-.79.029-4.117-.644-.533-2.078 11.559-2.965zM118.599 59.884l-.116.377-.033.67.138.539.156.489.363.205.329-.193.176-.572.179-.701.196-.686.159.341.171.132.225-.316.205-.464-.059-.714-.09-.073-1.999.966M139.399 54.51l.287.29.358.601.145.564.106.527-.216.367-.382-.015-.436-.44-.503-.557-.508-.537.029.393-.085.206-.352-.18-.407-.327-.301-.687.044-.11 2.221-.095"/></g><path fill="#FFF" stroke="#6E6F72" stroke-miterlimit="10" d="M122.598 58.444c-.695-.19-1.209-.605-1.356-1.177l-2.309-9.002c-.267-1.042.788-2.212 2.358-2.615l9.101-2.334c1.57-.403 3.058.116 3.325 1.157l2.309 9.002c.141.549-.086 1.135-.562 1.625"/><ellipse transform="scale(-1) rotate(75.618 50.066 -159.983)" fill="#FFF" stroke="#6E6F72" stroke-width=".75" stroke-miterlimit="10" cx="124.138" cy="38.851" rx="8.714" ry="9.31"/><path fill="#FFF" stroke="#6E6F72" stroke-width=".75" stroke-miterlimit="10" d="M133.564 49.018c1.16 2.278 1.808 5.004 2.066 7.282M122.759 58.888c1.748 4.677 4.585 8.007 4.585 8.007s-1.864 1.264-1.427 1.649c.438.384.727.559.727.559l3.799-2.257-.396-.954s-.968-1.736-.898-3.504M121.394 50.908c-.146 2.832.474 5.578 1.365 7.98M135.63 56.3c-5.695 4.512-12.615 3.128-12.615 3.128"/><path fill="#FFF" stroke="#6E6F72" stroke-width=".75" stroke-miterlimit="10" d="M134.665 51.828s-1.611 1.039-2.434.625c-.821-.414-1.927-3.621-1.927-3.621l-4.327 1.11 2.821-.724-4.567 1.171s.559 3.346.001 4.114c-.558.769-2.569.659-2.569.659"/><circle fill="#019547" cx="129.736" cy="53.906" r=".596"/><circle fill="#BE202E" cx="129.079" cy="51.342" r=".596"/><path fill="#F2F2F2" stroke="#A8AAAD" stroke-width=".50002" stroke-miterlimit="10" d="M127.992 54.966l-.988.253-.957-3.73.988-.254z"/><path fill="none" stroke="#6E6F72" stroke-width=".75" stroke-miterlimit="10" d="M135.614 55.775c-5.782 4.534-12.785 3.171-12.785 3.171M125.519 64.405c.823.619 3.835-.254 3.696-.948M125.881 64.897c.784.629 3.604-.195 3.461-.888"/><path fill="#FFF" stroke="#6E6F72" stroke-width=".75" stroke-miterlimit="10" d="M132.014 61.719c.846 1.534.91 3.496.91 3.496l.058 1.154 4.147.105s.332-.457.348-1.04-2.109-.71-2.109-.71.231-1.122.36-2.879a30.04 30.04 0 0 0-.092-5.546"/><path fill="none" stroke="#6E6F72" stroke-width=".75" stroke-miterlimit="10" d="M132.036 61.754s-2.348-2.926-2.902.744"/><path opacity=".17" fill="#A8AAAD" d="M116.732 41.605c3.189 8.062 16.551 3.593 15.215-3.902v.021c-2.223-10.274-18.328-6.262-15.203 3.927"/><path fill="#FFF" stroke="#6E6F72" stroke-width=".75" stroke-miterlimit="10" d="M115.661 41.962c.038.146-.079.303-.257.349-.18.046-.356-.036-.394-.182l-.519-2.021c-.037-.146.078-.302.258-.348.179-.046.356.035.393.181l.519 2.021zM134.348 37.169c.038.146-.078.302-.256.348-.18.046-.356-.035-.393-.182l-.519-2.021c-.038-.146.078-.302.257-.348.179-.046.355.035.393.181l.518 2.022z"/><path fill="#FFF" stroke="#6E6F72" stroke-width=".75" stroke-miterlimit="10" d="M134.784 36.488a.296.296 0 1 1-.573.147l-.198-.773a.296.296 0 1 1 .573-.147l.198.773zM114.851 41.505a.297.297 0 0 1-.213.36.294.294 0 0 1-.359-.213l-.198-.773a.295.295 0 0 1 .572-.146l.198.772z"/><path fill="none" stroke="#6E6F72" stroke-width=".75" stroke-miterlimit="10" d="M114.749 39.763s-1.552-4.418-1.197-6.829"/><circle fill="none" stroke="#29AAE1" stroke-miterlimit="10" cx="113.611" cy="32.682" r=".388"/><circle fill="#F89521" stroke="#F89521" stroke-miterlimit="10" cx="113.611" cy="32.682" r=".388"/><path fill="none" stroke="#6E6F72" stroke-width=".75" stroke-miterlimit="10" d="M137.115 54.431s-.066.178.267.898c0 0 1.357 1.536.772-.13"/><path fill="none" stroke="#6E6F72" stroke-width=".75" stroke-miterlimit="10" d="M139.393 54.477c.744.644 1.031 1.788.856 2.063-.467.736-.544.126-2.264-1.5"/><path fill="#FFF" stroke="#6E6F72" stroke-width=".75" stroke-miterlimit="10" d="M131.594 44.206c5.678 2.218 7.825 10.321 7.825 10.321l-2.217.115-5.463-7.247c.239-.557 1.002-2.181.363-2.971M132.204 48.01s1.165-2.133.629-3.169"/><path fill="none" stroke="#6E6F72" stroke-width=".75" stroke-miterlimit="10" d="M136.933 54.244l2.233-.339M120.571 58.691s.144.125.199.917c0 0-.449 2-.739.258"/><path fill="none" stroke="#6E6F72" stroke-width=".75" stroke-miterlimit="10" d="M118.597 59.828c-.342.922-.043 2.063.242 2.22.763.42.538-.151 1.263-2.405"/><path fill="#FFF" stroke="#6E6F72" stroke-width=".75" stroke-miterlimit="10" d="M120.63 46.987c-3.91 4.676-1.891 12.812-1.891 12.812l1.999-.966 1.3-8.982c-.478-.373-1.929-1.429-1.749-2.429M121.849 50.728s-2.049-1.31-2.077-2.476"/><path fill="none" stroke="#6E6F72" stroke-width=".75" stroke-miterlimit="10" d="M120.642 58.441l-2.122.776"/><path opacity=".41" fill="#A8AAAD" d="M121.239 32.338c-3.359 1.347-5.841 4.681-4.436 9.26M119.212 44.658c4.908 3.178 13.663-.903 12.575-7.011v.02c-.947-4.375-4.434-6.138-7.857-5.924"/><path fill="none" stroke="#6E6F72" stroke-width=".5" stroke-miterlimit="10" d="M116.623 41.688c3.192 8.07 16.566 3.597 15.229-3.906v.021c-2.225-10.284-18.346-6.269-15.217 3.931"/><path fill="none" stroke="#6E6F72" stroke-width=".75" stroke-miterlimit="10" d="M132.416 62.636c.757.636 3.447-.154 3.303-.847M132.563 63.184c.723.645 3.246-.103 3.1-.795"/></g></svg>