<svg xmlns="http://www.w3.org/2000/svg" width="288" height="288" viewBox="0 0 288 288"><circle fill="#846299" cx="144.572" cy="144.697" r="142.428"/><path opacity=".25" fill="#5B426B" stroke="#5B426B" stroke-miterlimit="10" d="M37.07 96.644c-6.896 22.84-11.635 84.035 35.769 68.951 47.405-15.082 27.148-45.679 25.856-45.679s-25.426 5.603-25.856-6.896c-.431-12.497-2.585-18.961-17.238-18.961S37.07 96.644 37.07 96.644z"/><path opacity=".35" fill="#5B426B" stroke="#5B426B" stroke-miterlimit="10" d="M198.675 202.658c-27.593 13.799 7.757 29.305 24.564 27.149 16.807-2.154 7.757-43.957 11.636-34.908 3.877 9.052-11.636-13.789-24.133-13.789-12.498 0-8.62 19.824-12.067 21.548z"/><path opacity=".72" fill="#5B426B" d="M194.365 245.752c6.895 2.154 4.31 9.481 2.155 12.929-2.155 3.447-9.481 3.018-10.344 0-.861-3.017 8.189-12.929 8.189-12.929z"/><path opacity=".61" fill="#5B426B" d="M251.051 171.171c4.629 2.261 4.629 4.521 4.629 15.368s-10.995-1.809-6.752 2.26c4.245 4.066.193-3.172.965-7.688.772-4.515 1.158-9.94 1.158-9.94z"/><path opacity=".39" fill="#5B426B" d="M191.647 92.867c-24.366-20.169 39.03-52.123 50.38-34.96 11.352 17.163 31.797 57.55 18.077 71.096-13.719 13.545-20.58 30.219-36.224 22.592-15.643-7.631-23.67-51.642-32.233-58.728z"/><ellipse transform="rotate(-68.967 79.82 208.69)" opacity=".53" fill="#5B426B" cx="79.818" cy="208.695" rx="3.443" ry="7.652"/></svg>