<svg xmlns="http://www.w3.org/2000/svg" width="288" height="288" viewBox="0 0 288 288"><path fill="#58595B" stroke="#58595B" stroke-miterlimit="10" d="M112.902 180.758l-4.392 18.31 33.009-.376-5.646-17.934z"/><g fill="#BE1E2D" stroke="#BE1E2D" stroke-miterlimit="10"><path d="M149.929 165.656l16.044 15.102 1.008 32.979-20.903-33.271M98.992 165.872l-16.044 15.102-1.009 32.979 20.903-33.271"/></g><g stroke-miterlimit="10"><path fill="#D1D3D4" stroke="#D1D3D4" d="M100.282 79.278h42.623c11.595 22.465 12.927 75.444 2.959 101.479h-42.739c-11.595-22.465-12.926-75.444-2.958-101.479h.115z"/><path fill="none" stroke="#58595B" stroke-width=".5" d="M108.866 180.557c-11.595-22.465-12.926-75.444-2.958-101.479h.116"/><path fill="#939598" stroke="#939598" d="M147.899 174.572a70.523 70.523 0 0 1-2.023 6.186H103.136c-.889-1.723-1.717-3.623-2.485-5.679l47.248-.507z"/></g><path fill="#BE1E2D" stroke="#BE1E2D" stroke-miterlimit="10" d="M123.014 171.381h2v43.548h-2zM100.165 79.278s12.376-32.749 21.37-32.813c8.798-.063 21.369 32.813 21.369 32.813h-42.739z"/><g stroke-miterlimit="10"><circle fill="#808285" stroke="#808285" cx="123.014" cy="113.514" r="16.505"/><circle opacity=".95" fill="#27AAE1" stroke="#27AAE1" cx="123.014" cy="113.514" r="10.859"/><path opacity=".79" fill="#A3D9F5" stroke="#A3D9F5" d="M127.667 123.277a10.81 10.81 0 0 1-4.652 1.045c-5.997 0-10.859-4.862-10.859-10.858 0-5.498 4.086-10.041 9.388-10.76"/></g><g fill="#58595B"><circle cx="105.309" cy="88.513" r="1.201"/><circle cx="102.843" cy="102.655" r="1.201"/><circle cx="101.642" cy="117.229" r="1.201"/><circle cx="101.642" cy="131.219" r="1.201"/><circle cx="102.843" cy="145.201" r="1.201"/><circle cx="105.309" cy="159.102" r="1.201"/></g><g fill="none" stroke="#414042" stroke-width=".5" stroke-miterlimit="10"><path d="M135.689 89.713l1.691 2.854M137.38 87.312l2.139 3.829M138.449 152.221l.661-1.375M139.519 153.871l1.058-3.025"/></g></svg>