<?xml version="1.0" encoding="utf-8"?>
<!-- Generator: Adobe Illustrator 15.0.0, SVG Export Plug-In . SVG Version: 6.00 Build 0)  -->
<!DOCTYPE svg PUBLIC "-//W3C//DTD SVG 1.1//EN" "http://www.w3.org/Graphics/SVG/1.1/DTD/svg11.dtd">
<svg version="1.1" xmlns="http://www.w3.org/2000/svg" xmlns:xlink="http://www.w3.org/1999/xlink" x="0px" y="0px" width="196px"
	 height="288px" viewBox="0 0 196 288" enable-background="new 0 0 196 288" xml:space="preserve">
<g id="backpack">
	<path fill="#FFFFFF" stroke="#27AAE1" stroke-miterlimit="10" d="M62.63,202.226c-4.462-2.546-7.287-6.32-7.287-10.531v-66.257
		c0-7.667,9.362-13.883,20.917-13.883h66.993c11.554,0,20.914,6.215,20.914,13.883v66.257c0,4.044-2.606,7.685-6.763,10.221"/>
</g>
<g id="Layer_1">
	<ellipse fill="#FFFFFF" stroke="#27AAE1" stroke-miterlimit="10" cx="110.293" cy="70.822" rx="66.381" ry="62.127"/>
</g>
<g id="Layer_2">
	<path fill="none" stroke="#27AAE1" stroke-miterlimit="10" d="M74.757,134.155"/>
	<path fill="none" stroke="#27AAE1" stroke-miterlimit="10" d="M58.224,165.319"/>
	<path fill="#FFFFFF" stroke="#27AAE1" stroke-miterlimit="10" d="M155.059,156.548c3.974,17.793,3.62,37.765,1.37,53.951"/>
	<path fill="#FFFFFF" stroke="#27AAE1" stroke-miterlimit="10" d="M62.954,205.578c3.79,35.394,17.487,63.416,17.487,63.416
		s-15.119,5.428-12.773,8.856c2.345,3.427,4.03,5.143,4.03,5.143l30.23-8.857l-1.041-7.287c0,0-3.617-13.701,0-25.792"/>
	<path fill="#FFFFFF" stroke="#27AAE1" stroke-miterlimit="10" d="M67.667,148.046c-6.026,19.299-6.61,39.361-4.713,57.532"/>
	<path fill="#FFFFFF" stroke="#27AAE1" stroke-miterlimit="10" d="M60.372,151.565"/>
	<path fill="#FFFFFF" stroke="#27AAE1" stroke-miterlimit="10" d="M156.429,210.499c-47.321,21.073-92.657-0.74-92.657-0.74"/>
	<path fill="#FFFFFF" stroke="#27AAE1" stroke-miterlimit="10" d="M101.928,268.21"/>
	<path fill="#FFFFFF" stroke="#27AAE1" stroke-miterlimit="10" d="M157.689,177.906c0,0-12.974,4.318-17.915,0
		c-4.938-4.319-6.9-28.417-6.9-28.417h-31.847h20.764H88.18c0,0-2.068,24.098-7.282,28.417c-5.214,4.318-18.906,0-18.906,0"/>
	<circle fill="#FFFFFF" stroke="#27AAE1" stroke-miterlimit="10" cx="119.966" cy="183.524" r="4.25"/>
	<circle opacity="0.41" fill="#27AAE1" stroke="#27AAE1" stroke-miterlimit="10" cx="119.966" cy="164.656" r="4.25"/>
	<rect x="98.809" y="160.317" fill="#FFFFFF" stroke="#27AAE1" stroke-miterlimit="10" width="7.272" height="27.457"/>
	<path fill="none" stroke="#27AAE1" stroke-miterlimit="10" d="M157.247,206.843c-47.961,21.074-93.911-0.74-93.911-0.74"/>
	<path fill="none" stroke="#27AAE1" stroke-miterlimit="10" d="M72.244,248.567c4.586,5.731,26.938,5.036,27.203,0"/>
	<path fill="none" stroke="#27AAE1" stroke-miterlimit="10" d="M73.875,252.61c4.294,5.731,25.23,5.036,25.475,0"/>
	<path fill="none" stroke="#27AAE1" stroke-miterlimit="10" d="M123.014,248.567c4.098,5.731,24.075,5.036,24.311,0"/>
	<path fill="none" stroke="#27AAE1" stroke-miterlimit="10" d="M123.058,252.61c3.849,5.731,22.6,5.036,22.82,0"/>
	<circle fill="none" stroke="#27AAE1" stroke-miterlimit="10" cx="119.966" cy="164.656" r="4.25"/>
	<circle opacity="0.4" fill="#27AAE1" stroke="#27AAE1" stroke-miterlimit="10" cx="119.966" cy="183.524" r="4.25"/>
</g>
<g id="inner_legs">
	<path fill="none" stroke="#27AAE1" stroke-miterlimit="10" d="M121.81,241.517c3.118,12.093,0.091,25.754,0.091,25.754l-1.65,8.071
		l28.463,8.073c0,0,3.103-2.571,4.245-6.57c1.148-3.998-13.315-8.635-13.315-8.635s3.587-7.339,7.598-19.249
		c3.401-10.097,7.105-23.479,9.188-38.462"/>
	<path fill="#FFFFFF" stroke="#27AAE1" stroke-miterlimit="10" d="M121.945,241.801c0,0-11.044-24.365-21.363,0"/>
</g>
<g id="head">
	<path opacity="0.02" fill="#00AEEF" d="M54.164,77.34c7.958,63.047,110.957,55.646,115.119,0l-0.035,0.143
		C172.175,0.491,50.525-0.348,54.164,77.686"/>
	<path fill="none" stroke="#27AAE1" stroke-miterlimit="10" d="M53.306,77.642c7.958,63.045,110.958,55.644,115.12,0l-0.036,0.145
		C171.316,0.795,49.668-0.045,53.306,77.99"/>
	<path fill="#FFFFFF" stroke="#27AAE1" stroke-miterlimit="10" d="M43.912,76.112c0,1.075-1.071,1.947-2.392,1.947l0,0
		c-1.321,0-2.392-0.872-2.392-1.947V61.234c0-1.075,1.07-1.946,2.392-1.946l0,0c1.321,0,2.392,0.872,2.392,1.946V76.112z"/>
	<path fill="#FFFFFF" stroke="#27AAE1" stroke-miterlimit="10" d="M181.456,76.112c0,1.075-1.069,1.947-2.389,1.947l0,0
		c-1.322,0-2.393-0.872-2.393-1.947V61.234c0-1.075,1.07-1.946,2.393-1.946l0,0c1.319,0,2.389,0.872,2.389,1.946V76.112z"/>
	<path fill="#FFFFFF" stroke="#27AAE1" stroke-miterlimit="10" d="M185.674,72.176c0,1.164-0.942,2.108-2.108,2.108l0,0
		c-1.164,0-2.109-0.944-2.109-2.108v-5.689c0-1.164,0.945-2.108,2.109-2.108l0,0c1.166,0,2.108,0.944,2.108,2.108V72.176z"/>
	<path fill="#FFFFFF" stroke="#27AAE1" stroke-miterlimit="10" d="M39.129,71.518c0,1.164-0.944,2.107-2.109,2.107l0,0
		c-1.164,0-2.108-0.943-2.108-2.107v-5.689c0-1.164,0.944-2.108,2.108-2.108l0,0c1.165,0,2.109,0.944,2.109,2.108V71.518z"/>
	<path fill="#FFFFFF" stroke="#27AAE1" stroke-miterlimit="10" d="M41.506,59.308c0,0-2.893-33.266,3.833-49.28"/>
	<circle fill="none" stroke="#27AAE1" stroke-miterlimit="10" cx="46.192" cy="8.396" r="2.764"/>
	<circle opacity="0.17" fill="#27AAE1" cx="46.192" cy="8.396" r="2.764"/>
	<path opacity="0.17" fill="#00AEEF" d="M103.479,19.753c-26.685,3.104-50.969,22.28-49.314,57.787"/>
	<path opacity="0.17" fill="#00AEEF" d="M70.77,108.191c31.215,26.757,95.666,12.838,98.942-30.941l-0.037,0.143
		c1.298-34.106-21.854-53.27-47.729-57.251"/>
</g>
<g id="arms">
	<path fill="none" stroke="#27AAE1" stroke-miterlimit="10" d="M169.995,200.216c0,0-0.776,1.12,0.25,6.68
		c0,0,6.643,13.012,5.56,0.471"/>
	<path fill="none" stroke="#27AAE1" stroke-miterlimit="10" d="M185.647,204.569c3.992,5.767,3.951,14.174,2.259,15.767
		c-4.526,4.247-3.98-0.098-12.976-14.377"/>
	<path fill="#FFFFFF" stroke="#27AAE1" stroke-miterlimit="10" d="M73.723,121.562c-14.496,14.494-26.737,22.5-33.48,30.297
		l-16.189-26.995l-12.058,13.677c0,0,22.889,38.938,28.718,35.808c8.325-4.474,31.315-27.552,31.315-27.552
		s-5.223-18.462-1.7-21.919"/>
	<line fill="#FFFFFF" stroke="#27AAE1" stroke-miterlimit="10" x1="15.5" y1="143.772" x2="27.031" y2="129.666"/>
	<path fill="none" stroke="#27AAE1" stroke-miterlimit="10" d="M12.815,137.613c-1.261-1.513-8.688-11.574-8.248-16.988
		c0.485-5.971,1.187-7.317,4.597-7.52c3.411-0.206,8.94,4.365,8.94,4.365s0.275-3.948,0.187-4.694
		c-0.086-0.745,0.449-2.131,1.726-2.29c1.278-0.157,2.576,2.614,3.034,4.255c0.458,1.642,1.003,10.123,1.003,10.123"/>
	<path fill="#FFFFFF" stroke="#27AAE1" stroke-miterlimit="10" d="M149.979,119.825c35.286,25.374,35.754,85.136,35.754,85.136
		l-15.515-3.129l-24.891-59.726c2.639-3.423,10.793-13.287,7.775-19.874"/>
	<path fill="#FFFFFF" stroke="#27AAE1" stroke-miterlimit="10" d="M147.445,147.178c0,0,11.828-12.671,9.954-20.771"/>
	<path fill="#FFFFFF" stroke="#27AAE1" stroke-miterlimit="10" d="M66.057,151.371c0,0-5.127-18.714-2.235-20.125"/>
	<line fill="none" stroke="#27AAE1" stroke-miterlimit="10" x1="169.069" y1="198.61" x2="185.092" y2="200.216"/>
</g>
</svg>
