<?xml version="1.0" encoding="utf-8"?>
<!-- Generator: Adobe Illustrator 15.0.0, SVG Export Plug-In . SVG Version: 6.00 Build 0)  -->
<!DOCTYPE svg PUBLIC "-//W3C//DTD SVG 1.1//EN" "http://www.w3.org/Graphics/SVG/1.1/DTD/svg11.dtd">
<svg version="1.1" xmlns="http://www.w3.org/2000/svg" xmlns:xlink="http://www.w3.org/1999/xlink" x="0px" y="0px" width="288px"
	 height="288px" viewBox="0 0 288 288" enable-background="new 0 0 288 288" xml:space="preserve">
<g id="base_planet">
	<circle fill="#846299" cx="150.65" cy="163.33" r="111.127"/>
	<path opacity="0.25" fill="#5B426B" stroke="#5B426B" stroke-miterlimit="10" d="M66.773,125.837
		c-5.38,17.821-9.078,65.567,27.909,53.798c36.987-11.768,21.182-35.64,20.174-35.64c-1.008,0-19.838,4.372-20.174-5.38
		c-0.336-9.75-2.017-14.794-13.45-14.794S66.773,125.837,66.773,125.837z"/>
	<path opacity="0.35" fill="#5B426B" stroke="#5B426B" stroke-miterlimit="10" d="M192.863,208.553
		c-21.529,10.767,6.052,22.865,19.166,21.184c13.113-1.682,6.052-34.297,9.078-27.237c3.025,7.063-9.078-10.759-18.829-10.759
		S195.553,207.207,192.863,208.553z"/>
	<path opacity="0.72" fill="#5B426B" d="M189.501,242.177c5.379,1.681,3.362,7.397,1.682,10.087c-1.682,2.689-7.398,2.354-8.071,0
		C182.439,249.91,189.501,242.177,189.501,242.177z"/>
	<path opacity="0.61" fill="#5B426B" d="M233.729,183.985c3.611,1.765,3.611,3.527,3.611,11.991s-8.578-1.411-5.268,1.763
		c3.313,3.173,0.15-2.475,0.753-5.999C233.428,188.219,233.729,183.985,233.729,183.985z"/>
	<path opacity="0.39" fill="#5B426B" d="M187.38,122.89c-19.011-15.737,30.453-40.667,39.309-27.277
		c8.856,13.391,24.809,44.902,14.104,55.471s-16.058,23.578-28.264,17.627C200.324,162.758,194.061,128.418,187.38,122.89z"/>
	
		<ellipse transform="matrix(0.3589 -0.9334 0.9334 0.3589 -134.8635 230.1789)" opacity="0.53" fill="#5B426B" cx="100.127" cy="213.263" rx="2.686" ry="5.97"/>
</g>
<g id="Layer_2">
	<g id="white">
		<polygon fill="#FFFFFF" points="135.68,56.789 123.276,60.166 122.598,58.444 135.343,55.076 		"/>
		<polygon fill="#FFFFFF" points="135.799,58.808 132.695,61.028 132.008,61.72 131.026,60.819 130.049,60.696 129.308,61.449 
			129.148,62.387 128.358,62.416 124.241,61.772 123.708,59.694 135.267,56.729 		"/>
		<polyline fill="#FFFFFF" points="118.599,59.884 118.483,60.261 118.45,60.931 118.588,61.47 118.744,61.959 119.107,62.164 
			119.436,61.971 119.612,61.399 119.791,60.698 119.987,60.012 120.146,60.353 120.317,60.485 120.542,60.169 120.747,59.705 
			120.688,58.991 120.598,58.918 118.599,59.884 		"/>
		<polyline fill="#FFFFFF" points="139.399,54.51 139.686,54.8 140.044,55.401 140.189,55.965 140.295,56.492 140.079,56.859 
			139.697,56.844 139.261,56.404 138.758,55.847 138.25,55.31 138.279,55.703 138.194,55.909 137.842,55.729 137.435,55.402 
			137.134,54.715 137.178,54.605 139.399,54.51 		"/>
	</g>
	<g id="Layer_1_1_">
		<path fill="#FFFFFF" stroke="#6E6F72" stroke-miterlimit="10" d="M122.598,58.444c-0.695-0.19-1.209-0.605-1.356-1.177
			l-2.309-9.002c-0.267-1.042,0.788-2.212,2.358-2.615l9.101-2.334c1.57-0.403,3.058,0.116,3.325,1.157l2.309,9.002
			c0.141,0.549-0.086,1.135-0.562,1.625"/>
		
			<ellipse transform="matrix(-0.2484 -0.9687 0.9687 -0.2484 117.3437 168.749)" fill="#FFFFFF" stroke="#6E6F72" stroke-width="0.75" stroke-miterlimit="10" cx="124.138" cy="38.851" rx="8.714" ry="9.31"/>
		<path fill="none" stroke="#29AAE1" stroke-miterlimit="10" d="M121.874,48.774"/>
		<path fill="none" stroke="#29AAE1" stroke-miterlimit="10" d="M120.713,53.583"/>
		<path fill="#FFFFFF" stroke="#6E6F72" stroke-width="0.75" stroke-miterlimit="10" d="M133.564,49.018
			c1.16,2.278,1.808,5.004,2.066,7.282"/>
		<path fill="#FFFFFF" stroke="#6E6F72" stroke-width="0.75" stroke-miterlimit="10" d="M122.759,58.888
			c1.748,4.677,4.585,8.007,4.585,8.007s-1.864,1.264-1.427,1.649c0.438,0.384,0.727,0.559,0.727,0.559l3.799-2.257l-0.396-0.954
			c0,0-0.968-1.736-0.898-3.504"/>
		<path fill="#FFFFFF" stroke="#6E6F72" stroke-width="0.75" stroke-miterlimit="10" d="M121.394,50.908
			c-0.146,2.832,0.474,5.578,1.365,7.98"/>
		<path fill="#FFFFFF" stroke="#29AAE1" stroke-miterlimit="10" d="M120.526,51.64"/>
		<path fill="#FFFFFF" stroke="#6E6F72" stroke-width="0.75" stroke-miterlimit="10" d="M135.63,56.3
			c-5.695,4.512-12.615,3.128-12.615,3.128"/>
		<path fill="#FFFFFF" stroke="#6E6F72" stroke-width="0.75" stroke-miterlimit="10" d="M130.236,66.04"/>
		<path fill="#FFFFFF" stroke="#6E6F72" stroke-width="0.75" stroke-miterlimit="10" d="M134.665,51.828
			c0,0-1.611,1.039-2.434,0.625c-0.821-0.414-1.927-3.621-1.927-3.621l-4.327,1.11l2.821-0.724l-4.567,1.171
			c0,0,0.559,3.346,0.001,4.114c-0.558,0.769-2.569,0.659-2.569,0.659"/>
		<circle fill="#019547" cx="129.736" cy="53.906" r="0.596"/>
		<circle fill="#BE202E" cx="129.079" cy="51.342" r="0.596"/>
		
			<rect x="126.516" y="51.303" transform="matrix(-0.9687 0.2484 -0.2484 -0.9687 263.2916 73.2364)" fill="#F2F2F2" stroke="#A8AAAD" stroke-width="0.5" stroke-miterlimit="10" width="1.02" height="3.851"/>
		<path fill="none" stroke="#6E6F72" stroke-width="0.75" stroke-miterlimit="10" d="M135.614,55.775
			c-5.782,4.534-12.785,3.171-12.785,3.171"/>
		<path fill="none" stroke="#6E6F72" stroke-width="0.75" stroke-miterlimit="10" d="M125.519,64.405
			c0.823,0.619,3.835-0.254,3.696-0.948"/>
		<path fill="none" stroke="#6E6F72" stroke-width="0.75" stroke-miterlimit="10" d="M125.881,64.897
			c0.784,0.629,3.604-0.195,3.461-0.888"/>
		<path fill="#FFFFFF" stroke="#6E6F72" stroke-width="0.75" stroke-miterlimit="10" d="M132.014,61.719
			c0.846,1.534,0.91,3.496,0.91,3.496l0.058,1.154l4.147,0.105c0,0,0.332-0.457,0.348-1.04s-2.109-0.71-2.109-0.71
			s0.231-1.122,0.36-2.879c0.111-1.49,0.147-3.438-0.092-5.546"/>
		<path fill="none" stroke="#6E6F72" stroke-width="0.75" stroke-miterlimit="10" d="M132.036,61.754c0,0-2.348-2.926-2.902,0.744"
			/>
		<path opacity="0.17" fill="#A8AAAD" enable-background="new    " d="M116.732,41.605c3.189,8.062,16.551,3.593,15.215-3.902
			l0,0.021c-2.223-10.274-18.328-6.262-15.203,3.927"/>
		<path fill="#FFFFFF" stroke="#6E6F72" stroke-width="0.75" stroke-miterlimit="10" d="M115.661,41.962
			c0.038,0.146-0.079,0.303-0.257,0.349l0,0c-0.18,0.046-0.356-0.036-0.394-0.182l-0.519-2.021
			c-0.037-0.146,0.078-0.302,0.258-0.348l0,0c0.179-0.046,0.356,0.035,0.393,0.181L115.661,41.962z"/>
		<path fill="#FFFFFF" stroke="#6E6F72" stroke-width="0.75" stroke-miterlimit="10" d="M134.348,37.169
			c0.038,0.146-0.078,0.302-0.256,0.348l0,0c-0.18,0.046-0.356-0.035-0.393-0.182l-0.519-2.021
			c-0.038-0.146,0.078-0.302,0.257-0.348l0,0c0.179-0.046,0.355,0.035,0.393,0.181L134.348,37.169z"/>
		<path fill="#FFFFFF" stroke="#6E6F72" stroke-width="0.75" stroke-miterlimit="10" d="M134.784,36.488
			c0.041,0.158-0.055,0.319-0.213,0.359l0,0c-0.159,0.041-0.319-0.055-0.36-0.212l-0.198-0.773
			c-0.041-0.158,0.054-0.319,0.213-0.359l0,0c0.158-0.041,0.32,0.055,0.36,0.212L134.784,36.488z"/>
		<path fill="#FFFFFF" stroke="#6E6F72" stroke-width="0.75" stroke-miterlimit="10" d="M114.851,41.505
			c0.04,0.158-0.055,0.319-0.213,0.36l0,0c-0.158,0.041-0.319-0.055-0.359-0.213l-0.198-0.773c-0.041-0.158,0.055-0.319,0.212-0.359
			l0,0c0.159-0.041,0.319,0.055,0.36,0.213L114.851,41.505z"/>
		<path fill="none" stroke="#6E6F72" stroke-width="0.75" stroke-miterlimit="10" d="M114.749,39.763c0,0-1.552-4.418-1.197-6.829"
			/>
		<circle fill="none" stroke="#29AAE1" stroke-miterlimit="10" cx="113.611" cy="32.682" r="0.388"/>
		<circle fill="#F89521" stroke="#F89521" stroke-miterlimit="10" cx="113.611" cy="32.682" r="0.388"/>
		<path fill="none" stroke="#6E6F72" stroke-width="0.75" stroke-miterlimit="10" d="M137.115,54.431c0,0-0.066,0.178,0.267,0.898
			c0,0,1.357,1.536,0.772-0.13"/>
		<path fill="none" stroke="#6E6F72" stroke-width="0.75" stroke-miterlimit="10" d="M139.393,54.477
			c0.744,0.644,1.031,1.788,0.856,2.063c-0.467,0.736-0.544,0.126-2.264-1.5"/>
		<path fill="#FFFFFF" stroke="#6E6F72" stroke-width="0.75" stroke-miterlimit="10" d="M131.594,44.206
			c5.678,2.218,7.825,10.321,7.825,10.321l-2.217,0.115l-5.463-7.247c0.239-0.557,1.002-2.181,0.363-2.971"/>
		<path fill="#FFFFFF" stroke="#6E6F72" stroke-width="0.75" stroke-miterlimit="10" d="M132.204,48.01c0,0,1.165-2.133,0.629-3.169
			"/>
		
			<line fill="none" stroke="#6E6F72" stroke-width="0.75" stroke-miterlimit="10" x1="136.933" y1="54.244" x2="139.166" y2="53.905"/>
		<path fill="none" stroke="#6E6F72" stroke-width="0.75" stroke-miterlimit="10" d="M120.571,58.691c0,0,0.144,0.125,0.199,0.917
			c0,0-0.449,2-0.739,0.258"/>
		<path fill="none" stroke="#6E6F72" stroke-width="0.75" stroke-miterlimit="10" d="M118.597,59.828
			c-0.342,0.922-0.043,2.063,0.242,2.22c0.763,0.42,0.538-0.151,1.263-2.405"/>
		<path fill="#FFFFFF" stroke="#6E6F72" stroke-width="0.75" stroke-miterlimit="10" d="M120.63,46.987
			c-3.91,4.676-1.891,12.812-1.891,12.812l1.999-0.966l1.3-8.982c-0.478-0.373-1.929-1.429-1.749-2.429"/>
		<path fill="#FFFFFF" stroke="#6E6F72" stroke-width="0.75" stroke-miterlimit="10" d="M121.849,50.728c0,0-2.049-1.31-2.077-2.476
			"/>
		
			<line fill="none" stroke="#6E6F72" stroke-width="0.75" stroke-miterlimit="10" x1="120.642" y1="58.441" x2="118.52" y2="59.217"/>
		<path opacity="0.41" fill="#A8AAAD" enable-background="new    " d="M121.239,32.338c-3.359,1.347-5.841,4.681-4.436,9.26"/>
		<path opacity="0.41" fill="#A8AAAD" enable-background="new    " d="M119.212,44.658c4.908,3.178,13.663-0.903,12.575-7.011
			l0,0.02c-0.947-4.375-4.434-6.138-7.857-5.924"/>
		<path fill="none" stroke="#6E6F72" stroke-width="0.5" stroke-miterlimit="10" d="M116.623,41.688
			c3.192,8.07,16.566,3.597,15.229-3.906l0,0.021c-2.225-10.284-18.346-6.269-15.217,3.931"/>
		<path fill="none" stroke="#6E6F72" stroke-width="0.75" stroke-miterlimit="10" d="M132.416,62.636
			c0.757,0.636,3.447-0.154,3.303-0.847"/>
		<path fill="none" stroke="#6E6F72" stroke-width="0.75" stroke-miterlimit="10" d="M132.563,63.184
			c0.723,0.645,3.246-0.103,3.1-0.795"/>
	</g>
</g>
</svg>
