<?xml version="1.0" encoding="utf-8"?>
<!-- Generator: Adobe Illustrator 15.0.0, SVG Export Plug-In . SVG Version: 6.00 Build 0)  -->
<!DOCTYPE svg PUBLIC "-//W3C//DTD SVG 1.1//EN" "http://www.w3.org/Graphics/SVG/1.1/DTD/svg11.dtd">
<svg version="1.1" id="Layer_1" xmlns="http://www.w3.org/2000/svg" xmlns:xlink="http://www.w3.org/1999/xlink" x="0px" y="0px"
	 width="288px" height="288px" viewBox="0 0 288 288" enable-background="new 0 0 288 288" xml:space="preserve">
<g id="Layer_2" display="none">
	
		<rect x="79.079" y="59" display="inline" fill="#ED1F24" stroke="#000000" stroke-miterlimit="10" width="126.185" height="163.402"/>
</g>
<g id="white">
	<polygon fill="#FFFFFF" points="169.879,179.827 125.738,180.479 124.953,174.175 170.213,173.842 	"/>
	<polygon fill="#FFFFFF" points="168.551,186.645 156.332,191.384 153.454,193.098 150.96,189.262 147.814,188.02 144.705,189.895 
		143.378,192.876 140.723,192.296 127.578,186.645 127.578,179.277 168.551,179.277 	"/>
	<polyline fill="#FFFFFF" points="110.422,175.553 109.717,176.708 109.036,178.907 109.036,180.818 109.136,182.579 
		110.168,183.568 111.425,183.209 112.499,181.456 113.695,179.277 114.929,177.16 115.168,178.432 115.624,179.018 
		116.641,178.159 117.719,176.789 118.134,174.363 117.894,174.046 110.422,175.553 	"/>
	<polyline fill="#FFFFFF" points="184.191,175.42 184.896,176.63 185.578,178.934 185.578,180.934 185.479,182.777 184.445,183.813 
		183.189,183.438 182.115,181.602 180.92,179.32 179.686,177.104 179.445,178.434 178.99,179.047 177.973,178.148 176.896,176.715 
		176.48,174.174 176.721,173.842 184.191,175.42 	"/>
</g>
<g id="Layer_1_1_">
	<path fill="#FFFFFF" stroke="#6D6E71" stroke-miterlimit="10" d="M124.953,174.175c-2.149-1.227-3.509-3.044-3.509-5.071v-31.911
		c0-3.692,4.509-6.686,10.073-6.686h32.265c5.563,0,10.071,2.994,10.071,6.686v31.911c0,1.947-1.254,3.701-3.256,4.922"/>
	
		<ellipse fill="#FFFFFF" stroke="#6D6E71" stroke-width="0.75" stroke-miterlimit="10" cx="147.583" cy="110.385" rx="31.97" ry="29.921"/>
	<path fill="none" stroke="#27AAE1" stroke-miterlimit="10" d="M130.793,141.392"/>
	<path fill="none" stroke="#27AAE1" stroke-miterlimit="10" d="M122.831,156.4"/>
	<path fill="#FFFFFF" stroke="#6D6E71" stroke-width="0.75" stroke-miterlimit="10" d="M169.468,152.176
		c1.913,8.569,1.743,18.188,0.659,25.983"/>
	<path fill="#FFFFFF" stroke="#6D6E71" stroke-width="0.75" stroke-miterlimit="10" d="M125.109,175.789
		c1.825,17.046,8.422,30.542,8.422,30.542s-7.281,2.614-6.152,4.267c1.129,1.649,1.941,2.477,1.941,2.477l14.559-4.266l-0.501-3.511
		c0,0-1.742-6.599,0-12.422"/>
	<path fill="#FFFFFF" stroke="#6D6E71" stroke-width="0.75" stroke-miterlimit="10" d="M127.379,148.081
		c-2.902,9.295-3.184,18.957-2.27,27.708"/>
	<path fill="#FFFFFF" stroke="#27AAE1" stroke-miterlimit="10" d="M123.865,149.775"/>
	<path fill="#FFFFFF" stroke="#6D6E71" stroke-width="0.75" stroke-miterlimit="10" d="M170.127,178.159
		c-22.79,10.149-44.624-0.356-44.624-0.356"/>
	<path fill="#FFFFFF" stroke="#6D6E71" stroke-width="0.75" stroke-miterlimit="10" d="M143.879,205.953"/>
	<path fill="#FFFFFF" stroke="#6D6E71" stroke-width="0.75" stroke-miterlimit="10" d="M170.734,162.462c0,0-6.248,2.08-8.629,0
		c-2.379-2.08-3.322-13.687-3.322-13.687h-15.338h10h-16.188c0,0-0.996,11.605-3.507,13.687c-2.511,2.08-9.105,0-9.105,0"/>
	<circle fill="#009444" cx="152.566" cy="165.168" r="2.047"/>
	<circle fill="#BE1E2D" cx="152.566" cy="156.081" r="2.047"/>
	
		<rect x="142.377" y="153.991" fill="#F1F2F2" stroke="#A7A9AC" stroke-width="0.5" stroke-miterlimit="10" width="3.502" height="13.224"/>
	<path fill="none" stroke="#6D6E71" stroke-width="0.75" stroke-miterlimit="10" d="M170.521,176.398
		c-23.1,10.148-45.229-0.356-45.229-0.356"/>
	<path fill="none" stroke="#6D6E71" stroke-width="0.75" stroke-miterlimit="10" d="M129.583,196.493
		c2.209,2.761,12.974,2.426,13.101,0"/>
	<path fill="none" stroke="#6D6E71" stroke-width="0.75" stroke-miterlimit="10" d="M130.369,198.439
		c2.068,2.762,12.151,2.427,12.269,0"/>
	<path fill="#FFFFFF" stroke="#6D6E71" stroke-width="0.75" stroke-miterlimit="10" d="M153.479,193.097
		c1.502,5.824,0.044,12.403,0.044,12.403l-0.795,3.888l13.708,3.889c0,0,1.493-1.238,2.045-3.164
		c0.553-1.926-6.413-4.159-6.413-4.159s1.729-3.534,3.659-9.271c1.638-4.863,3.422-11.309,4.425-18.523"/>
	<path fill="none" stroke="#6D6E71" stroke-width="0.75" stroke-miterlimit="10" d="M153.52,193.234c0,0-5.317-11.734-10.289,0"/>
	<path opacity="0.17" fill="#A7A9AC" enable-background="new    " d="M118.84,113.784c4.057,32.143,56.571,28.37,58.694,0
		l-0.019,0.073c1.492-39.253-60.53-39.68-58.675,0.104"/>
	<path fill="#FFFFFF" stroke="#6D6E71" stroke-width="0.75" stroke-miterlimit="10" d="M115.938,113.438
		c0,0.518-0.516,0.938-1.152,0.938l0,0c-0.636,0-1.152-0.42-1.152-0.938v-7.166c0-0.518,0.516-0.938,1.152-0.938l0,0
		c0.636,0,1.152,0.42,1.152,0.938V113.438z"/>
	<path fill="#FFFFFF" stroke="#6D6E71" stroke-width="0.75" stroke-miterlimit="10" d="M182.182,113.438
		c0,0.518-0.516,0.938-1.15,0.938l0,0c-0.637,0-1.152-0.42-1.152-0.938v-7.166c0-0.518,0.516-0.938,1.152-0.938l0,0
		c0.636,0,1.15,0.42,1.15,0.938V113.438z"/>
	<path fill="#FFFFFF" stroke="#6D6E71" stroke-width="0.75" stroke-miterlimit="10" d="M184.212,111.542
		c0,0.561-0.454,1.015-1.017,1.015l0,0c-0.561,0-1.016-0.455-1.016-1.015v-2.74c0-0.561,0.455-1.015,1.016-1.015l0,0
		c0.563,0,1.017,0.455,1.017,1.015V111.542z"/>
	<path fill="#FFFFFF" stroke="#6D6E71" stroke-width="0.75" stroke-miterlimit="10" d="M113.634,111.225
		c0,0.561-0.455,1.015-1.016,1.015l0,0c-0.561,0-1.015-0.455-1.015-1.015v-2.74c0-0.561,0.455-1.015,1.015-1.015l0,0
		c0.561,0,1.016,0.455,1.016,1.015V111.225z"/>
	<path fill="none" stroke="#6D6E71" stroke-width="0.75" stroke-miterlimit="10" d="M114.779,105.344c0,0-1.393-16.021,1.846-23.734
		"/>
	<circle fill="none" stroke="#27AAE1" stroke-miterlimit="10" cx="117.036" cy="80.824" r="1.331"/>
	<circle fill="#F7941E" stroke="#F7941E" stroke-miterlimit="10" cx="117.036" cy="80.824" r="1.331"/>
	<path fill="none" stroke="#6D6E71" stroke-width="0.75" stroke-miterlimit="10" d="M176.661,173.207c0,0-0.374,0.539,0.12,3.217
		c0,0,3.199,6.268,2.678,0.227"/>
	<path fill="none" stroke="#6D6E71" stroke-width="0.75" stroke-miterlimit="10" d="M184.199,175.305
		c1.923,2.776,1.902,6.825,1.088,7.592c-2.18,2.047-1.917-0.047-6.249-6.924"/>
	<path fill="#FFFFFF" stroke="#6D6E71" stroke-width="0.75" stroke-miterlimit="10" d="M167.021,134.49
		c16.994,12.22,17.22,41.002,17.22,41.002l-7.472-1.508l-11.988-28.764c1.271-1.648,5.197-6.4,3.744-9.572"/>
	<path fill="#FFFFFF" stroke="#6D6E71" stroke-width="0.75" stroke-miterlimit="10" d="M165.801,147.663
		c0,0,5.696-6.103,4.795-10.004"/>
	
		<line fill="none" stroke="#6D6E71" stroke-width="0.75" stroke-miterlimit="10" x1="176.215" y1="172.434" x2="183.932" y2="173.207"/>
	<path fill="none" stroke="#6D6E71" stroke-width="0.75" stroke-miterlimit="10" d="M118.001,173.268c0,0,0.374,0.539-0.12,3.217
		c0,0-3.199,6.268-2.678,0.228"/>
	<path fill="none" stroke="#6D6E71" stroke-width="0.75" stroke-miterlimit="10" d="M110.463,175.364
		c-1.923,2.776-1.903,6.825-1.088,7.593c2.18,2.046,1.917-0.047,6.249-6.924"/>
	<path fill="#FFFFFF" stroke="#6D6E71" stroke-width="0.75" stroke-miterlimit="10" d="M128.182,134.387
		c-16.994,12.22-17.22,41.002-17.22,41.002l7.472-1.507l11.988-28.766c-1.271-1.647-5.198-6.398-3.745-9.57"/>
	<path fill="#FFFFFF" stroke="#6D6E71" stroke-width="0.75" stroke-miterlimit="10" d="M129.044,147.871
		c0,0-5.696-6.104-4.794-10.005"/>
	
		<line fill="none" stroke="#6D6E71" stroke-width="0.75" stroke-miterlimit="10" x1="118.447" y1="172.494" x2="110.73" y2="173.268"/>
	<path opacity="0.41" fill="#A7A9AC" enable-background="new    " d="M143.754,84.424c-13.41,1.758-25.486,11.517-24.653,29.401"/>
	<path opacity="0.41" fill="#A7A9AC" enable-background="new    " d="M124.479,127.456c14.945,16.199,50.728,9.497,52.473-13.82
		l-0.018,0.073c0.64-16.86-10.438-26.558-23.137-28.982"/>
	<path fill="none" stroke="#6D6E71" stroke-width="0.75" stroke-miterlimit="10" d="M118.405,113.939
		c4.057,32.141,56.569,28.37,58.693,0l-0.02,0.072c1.492-39.252-60.529-39.681-58.673,0.104"/>
	<path fill="none" stroke="#6D6E71" stroke-width="0.75" stroke-miterlimit="10" d="M154.034,196.493
		c1.974,2.761,11.595,2.426,11.708,0"/>
	<path fill="none" stroke="#6D6E71" stroke-width="0.75" stroke-miterlimit="10" d="M154.057,198.439
		c1.854,2.762,10.883,2.427,10.989,0"/>
</g>
</svg>
