<?xml version="1.0" encoding="utf-8"?>
<!-- Generator: Adobe Illustrator 15.0.0, SVG Export Plug-In . SVG Version: 6.00 Build 0)  -->
<!DOCTYPE svg PUBLIC "-//W3C//DTD SVG 1.1//EN" "http://www.w3.org/Graphics/SVG/1.1/DTD/svg11.dtd">
<svg version="1.1" xmlns="http://www.w3.org/2000/svg" xmlns:xlink="http://www.w3.org/1999/xlink" x="0px" y="0px" width="288px"
	 height="288px" viewBox="0 0 288 288" enable-background="new 0 0 288 288" xml:space="preserve">
<g id="jet">
	<path fill="#58595B" stroke="#58595B" stroke-miterlimit="10" d="M219.679,189.529"/>
	<polygon fill="#58595B" stroke="#58595B" stroke-miterlimit="10" points="112.902,180.758 108.51,199.068 141.519,198.692 
		135.873,180.758 	"/>
</g>
<g id="Layer_6">
	<polyline fill="#BE1E2D" stroke="#BE1E2D" stroke-miterlimit="10" points="149.929,165.656 165.973,180.758 166.981,213.737 
		146.078,180.466 	"/>
	<polyline fill="#BE1E2D" stroke="#BE1E2D" stroke-miterlimit="10" points="98.992,165.872 82.948,180.974 81.939,213.953 
		102.842,180.682 	"/>
</g>
<g id="rocket_body">
	<path fill="#D1D3D4" stroke="#D1D3D4" stroke-miterlimit="10" d="M100.282,79.278h42.623
		c11.595,22.465,12.927,75.444,2.959,101.479h-0.116h-42.623c-11.595-22.465-12.926-75.444-2.958-101.479H100.282z"/>
	<path fill="none" stroke="#58595B" stroke-width="0.5" stroke-miterlimit="10" d="M108.866,180.557
		c-11.595-22.465-12.926-75.444-2.958-101.479h0.116"/>
	<path fill="#939598" stroke="#939598" stroke-miterlimit="10" d="M147.899,174.572c-0.613,2.193-1.288,4.264-2.023,6.186h-0.117
		h-42.623c-0.889-1.723-1.717-3.623-2.485-5.679L147.899,174.572z"/>
</g>
<g id="fins">
	<rect x="123.014" y="171.381" fill="#BE1E2D" stroke="#BE1E2D" stroke-miterlimit="10" width="2" height="43.548"/>
</g>
<g id="top">
	<path fill="#BE1E2D" stroke="#BE1E2D" stroke-miterlimit="10" d="M100.165,79.278c0,0,12.376-32.749,21.37-32.813
		c8.798-0.063,21.369,32.813,21.369,32.813H100.165z"/>
</g>
<g id="window">
	<circle fill="#808285" stroke="#808285" stroke-miterlimit="10" cx="123.014" cy="113.514" r="16.505"/>
	<circle opacity="0.95" fill="#27AAE1" stroke="#27AAE1" stroke-miterlimit="10" cx="123.014" cy="113.514" r="10.859"/>
	<path opacity="0.79" fill="#A3D9F5" stroke="#A3D9F5" stroke-miterlimit="10" d="M127.667,123.277
		c-1.41,0.67-2.987,1.045-4.652,1.045c-5.997,0-10.859-4.862-10.859-10.858c0-5.498,4.086-10.041,9.388-10.76"/>
</g>
<g id="rivets">
	<circle fill="#58595B" cx="105.309" cy="88.513" r="1.201"/>
	<circle fill="#58595B" cx="102.843" cy="102.655" r="1.201"/>
	<circle fill="#58595B" cx="101.642" cy="117.229" r="1.201"/>
	<circle fill="#58595B" cx="101.642" cy="131.219" r="1.201"/>
	<circle fill="#58595B" cx="102.843" cy="145.201" r="1.201"/>
	<circle fill="#58595B" cx="105.309" cy="159.102" r="1.201"/>
</g>
<g id="Layer_8">
	<line fill="none" stroke="#414042" stroke-width="0.5" stroke-miterlimit="10" x1="135.689" y1="89.713" x2="137.38" y2="92.567"/>
	<line fill="none" stroke="#414042" stroke-width="0.5" stroke-miterlimit="10" x1="137.38" y1="87.312" x2="139.519" y2="91.141"/>
	
		<line fill="none" stroke="#414042" stroke-width="0.5" stroke-miterlimit="10" x1="138.449" y1="152.221" x2="139.11" y2="150.846"/>
	
		<line fill="none" stroke="#414042" stroke-width="0.5" stroke-miterlimit="10" x1="139.519" y1="153.871" x2="140.577" y2="150.846"/>
</g>
</svg>
