<?xml version="1.0" encoding="utf-8"?>
<!-- Generator: Adobe Illustrator 15.0.0, SVG Export Plug-In . SVG Version: 6.00 Build 0)  -->
<!DOCTYPE svg PUBLIC "-//W3C//DTD SVG 1.1//EN" "http://www.w3.org/Graphics/SVG/1.1/DTD/svg11.dtd">
<svg version="1.1" id="base_planet" xmlns="http://www.w3.org/2000/svg" xmlns:xlink="http://www.w3.org/1999/xlink" x="0px"
	 y="0px" width="288px" height="288px" viewBox="0 0 288 288" enable-background="new 0 0 288 288" xml:space="preserve">
<circle fill="#846299" cx="144.572" cy="144.697" r="142.428"/>
<path opacity="0.25" fill="#5B426B" stroke="#5B426B" stroke-miterlimit="10" d="M37.07,96.644
	c-6.896,22.84-11.635,84.035,35.769,68.951c47.405-15.082,27.148-45.679,25.856-45.679s-25.426,5.603-25.856-6.896
	c-0.431-12.497-2.585-18.961-17.238-18.961S37.07,96.644,37.07,96.644z"/>
<path opacity="0.35" fill="#5B426B" stroke="#5B426B" stroke-miterlimit="10" d="M198.675,202.658
	c-27.593,13.799,7.757,29.305,24.564,27.149c16.807-2.154,7.757-43.957,11.636-34.908c3.877,9.052-11.636-13.789-24.133-13.789
	C198.244,181.11,202.122,200.934,198.675,202.658z"/>
<path opacity="0.72" fill="#5B426B" d="M194.365,245.752c6.895,2.154,4.31,9.481,2.155,12.929c-2.155,3.447-9.481,3.018-10.344,0
	C185.315,255.664,194.365,245.752,194.365,245.752z"/>
<path opacity="0.61" fill="#5B426B" d="M251.051,171.171c4.629,2.261,4.629,4.521,4.629,15.368s-10.995-1.809-6.752,2.26
	c4.245,4.066,0.193-3.172,0.965-7.688C250.665,176.596,251.051,171.171,251.051,171.171z"/>
<path opacity="0.39" fill="#5B426B" d="M191.647,92.867c-24.366-20.169,39.03-52.123,50.38-34.96
	c11.352,17.163,31.797,57.55,18.077,71.096c-13.719,13.545-20.58,30.219-36.224,22.592
	C208.237,143.964,200.21,99.953,191.647,92.867z"/>
<ellipse transform="matrix(0.3589 -0.9334 0.9334 0.3589 -143.6194 208.295)" opacity="0.53" fill="#5B426B" cx="79.818" cy="208.695" rx="3.443" ry="7.652"/>
</svg>
